# xmcd
# 
# Track frame offsets:
#     150
#     4327
#     19595
#     39130
#     50272
#     71447
#     91955
#     97235
#     118375
#     139060
#     159892
#     177897
#     196997
#     216352
#     235745
# 
# Disc length: 3419
# 
# Revision: 6
# Processed by: cddbd v1.5.2PL0 Copyright (c) Steve Scherf et al.
# Submitted via: fre:ac v1.0.17
# 
DISCID=c50d590f
DTITLE=Total - Total
DYEAR=1996
DGENRE=R&B
TTITLE0=Intro
TTITLE1=Do You Know
TTITLE2=No One Else (Featuring Da Brat)
TTITLE3=Whose Is It? (Interlude)
TTITLE4=Kissin' You
TTITLE5=Do You Think About Us
TTITLE6=Definition Of A Bad Girl (Interlude)
TTITLE7=Can't You See (Featuring The Notorious B.I.G.)
TTITLE8=Someone Like You
TTITLE9=Tell Me
TTITLE10=Love Is All We Need
TTITLE11=Don't Ever Change
TTITLE12=Spend Some Time
TTITLE13=When Boy Meets Girl
TTITLE14=No One Else (Puff Daddy Remix) (Featuring Da Brat, Lil' Kim, Foxy Brown)
EXTD=
EXTT0=
EXTT1=
EXTT2=
EXTT3=
EXTT4=
EXTT5=
EXTT6=
EXTT7=
EXTT8=
EXTT9=
EXTT10=
EXTT11=
EXTT12=
EXTT13=
EXTT14=
PLAYORDER=
